<svg xmlns="http://www.w3.org/2000/svg" width="32" height="32" viewBox="0 0 32 32">
  <!-- 龙之心 — 传说品质消耗品 -->
  <defs>
    <radialGradient id="glow" cx="50%" cy="50%" r="50%">
      <stop offset="0%" stop-color="#FFD700" stop-opacity="0.6"/>
      <stop offset="100%" stop-color="#FF4500" stop-opacity="0"/>
    </radialGradient>
  </defs>
  <circle cx="16" cy="16" r="14" fill="url(#glow)"/>
  <path d="M16 6 C12 2, 2 6, 6 14 C8 18, 16 24, 16 24 C16 24, 24 18, 26 14 C30 6, 20 2, 16 6Z" fill="#FF4500" stroke="#FFD700" stroke-width="1.5"/>
  <path d="M16 10 C14 8, 9 10, 11 14 C12 16, 16 19, 16 19 C16 19, 20 16, 21 14 C23 10, 18 8, 16 10Z" fill="#FFD700" opacity="0.6"/>
</svg>
